<svg width="69" height="69" viewBox="0 0 69 69" fill="none" xmlns="http://www.w3.org/2000/svg">
<path d="M15.0127 53.9181C12.5683 51.4737 14.189 46.3458 12.9403 43.3435C11.6915 40.3412 6.90906 37.7108 6.90906 34.3897C6.90906 31.0685 11.6384 28.5444 12.9403 25.4358C14.2422 22.3272 12.5683 17.3056 15.0127 14.8613C17.4571 12.4169 22.5849 14.0376 25.5873 12.7889C28.5896 11.5401 31.2199 6.75763 34.5411 6.75763C37.8623 6.75763 40.3863 11.487 43.4949 12.7889C46.6035 14.0907 51.6251 12.4169 54.0695 14.8613C56.5139 17.3056 54.8932 22.4335 56.1419 25.4358C57.3907 28.4382 62.1731 31.0685 62.1731 34.3897C62.1731 37.7108 57.4438 40.2349 56.1419 43.3435C54.84 46.4521 56.5139 51.4737 54.0695 53.9181C51.6251 56.3624 46.4973 54.7417 43.4949 55.9905C40.4926 57.2392 37.8623 62.0217 34.5411 62.0217C31.2199 62.0217 28.6959 57.2924 25.5873 55.9905C22.4786 54.6886 17.4571 56.3624 15.0127 53.9181Z" fill="#4E9BB9" stroke="#4E9BB9" stroke-width="2" stroke-linecap="round" stroke-linejoin="round"/>
<path d="M34.541 51.3939C36.3018 51.3939 37.7293 49.9665 37.7293 48.2056C37.7293 46.4448 36.3018 45.0173 34.541 45.0173C32.7801 45.0173 31.3527 46.4448 31.3527 48.2056C31.3527 49.9665 32.7801 51.3939 34.541 51.3939Z" fill="white"/>
<path d="M34.5412 38.6407V36.5152C36.0126 36.5152 37.4509 36.0789 38.6743 35.2614C39.8977 34.444 40.8512 33.2821 41.4143 31.9227C41.9774 30.5633 42.1247 29.0675 41.8376 27.6244C41.5506 26.1813 40.8421 24.8558 39.8016 23.8153C38.7612 22.7749 37.4357 22.0664 35.9926 21.7793C34.5495 21.4923 33.0536 21.6396 31.6943 22.2027C30.3349 22.7657 29.173 23.7193 28.3556 24.9427C27.5381 26.1661 27.1018 27.6044 27.1018 29.0758" stroke="white" stroke-width="2" stroke-linecap="round" stroke-linejoin="round"/>
</svg>
