<svg width="69" height="69" viewBox="0 0 69 69" fill="none" xmlns="http://www.w3.org/2000/svg">
<path d="M60.0477 27.8398H47.2944V55.4719H60.0477C60.6114 55.4719 61.152 55.2479 61.5507 54.8493C61.9493 54.4507 62.1732 53.9101 62.1732 53.3463V29.9654C62.1732 29.4017 61.9493 28.861 61.5507 28.4624C61.152 28.0638 60.6114 27.8398 60.0477 27.8398V27.8398Z" stroke="#594545" stroke-width="2.00322" stroke-linecap="round" stroke-linejoin="round"/>
<path d="M47.2944 27.8398L36.6667 6.58441C34.4118 6.58441 32.2493 7.48017 30.6548 9.07464C29.0603 10.6691 28.1646 12.8317 28.1646 15.0866V21.4632H11.7182C11.1154 21.4617 10.5193 21.5892 9.96989 21.8372C9.42048 22.0852 8.93049 22.4478 8.53285 22.9008C8.13521 23.3539 7.83911 23.8867 7.66445 24.4636C7.4898 25.0406 7.44063 25.6482 7.52024 26.2457L10.7086 51.7522C10.8375 52.7761 11.3346 53.7181 12.107 54.4026C12.8795 55.087 13.8745 55.4671 14.9065 55.4719H47.2944" stroke="#594545" stroke-width="2.00322" stroke-linecap="round" stroke-linejoin="round"/>
</svg>
