<svg width="101" height="19" viewBox="0 0 101 19" fill="none" xmlns="http://www.w3.org/2000/svg">
<path d="M1.92969 0.9375H4.55469L9.48828 14.0977L14.4102 0.9375H17.0352L10.5195 18H8.43359L1.92969 0.9375ZM0.734375 0.9375H3.23047L3.66406 12.3281V18H0.734375V0.9375ZM15.7344 0.9375H18.2422V18H15.3008V12.3281L15.7344 0.9375ZM29.082 15.0117V5.32031H31.918V18H29.2461L29.082 15.0117ZM29.4805 12.375L30.4297 12.3516C30.4297 13.2031 30.3359 13.9883 30.1484 14.707C29.9609 15.418 29.6719 16.0391 29.2812 16.5703C28.8906 17.0938 28.3906 17.5039 27.7812 17.8008C27.1719 18.0898 26.4414 18.2344 25.5898 18.2344C24.9727 18.2344 24.4062 18.1445 23.8906 17.9648C23.375 17.7852 22.9297 17.5078 22.5547 17.1328C22.1875 16.7578 21.9023 16.2695 21.6992 15.668C21.4961 15.0664 21.3945 14.3477 21.3945 13.5117V5.32031H24.2188V13.5352C24.2188 13.9961 24.2734 14.3828 24.3828 14.6953C24.4922 15 24.6406 15.2461 24.8281 15.4336C25.0156 15.6211 25.2344 15.7539 25.4844 15.832C25.7344 15.9102 26 15.9492 26.2812 15.9492C27.0859 15.9492 27.7188 15.793 28.1797 15.4805C28.6484 15.1602 28.9805 14.7305 29.1758 14.1914C29.3789 13.6523 29.4805 13.0469 29.4805 12.375ZM40.625 5.32031V7.38281H33.4766V5.32031H40.625ZM35.5391 2.21484H38.3633V14.4961C38.3633 14.8867 38.418 15.1875 38.5273 15.3984C38.6445 15.6016 38.8047 15.7383 39.0078 15.8086C39.2109 15.8789 39.4492 15.9141 39.7227 15.9141C39.918 15.9141 40.1055 15.9023 40.2852 15.8789C40.4648 15.8555 40.6094 15.832 40.7188 15.8086L40.7305 17.9648C40.4961 18.0352 40.2227 18.0977 39.9102 18.1523C39.6055 18.207 39.2539 18.2344 38.8555 18.2344C38.207 18.2344 37.6328 18.1211 37.1328 17.8945C36.6328 17.6602 36.2422 17.2812 35.9609 16.7578C35.6797 16.2344 35.5391 15.5391 35.5391 14.6719V2.21484ZM42.8164 0H45.6406V15.293L45.3711 18H42.8164V0ZM53.9141 11.543V11.7891C53.9141 12.7266 53.8086 13.5898 53.5977 14.3789C53.3945 15.1602 53.082 15.8398 52.6602 16.418C52.2461 16.9961 51.7305 17.4453 51.1133 17.7656C50.5039 18.0781 49.7969 18.2344 48.9922 18.2344C48.2031 18.2344 47.5156 18.0859 46.9297 17.7891C46.3438 17.4922 45.8516 17.0703 45.4531 16.5234C45.0625 15.9766 44.7461 15.3242 44.5039 14.5664C44.2617 13.8086 44.0898 12.9727 43.9883 12.0586V11.2734C44.0898 10.3516 44.2617 9.51562 44.5039 8.76562C44.7461 8.00781 45.0625 7.35547 45.4531 6.80859C45.8516 6.25391 46.3398 5.82812 46.918 5.53125C47.5039 5.23438 48.1875 5.08594 48.9688 5.08594C49.7812 5.08594 50.4961 5.24219 51.1133 5.55469C51.7383 5.86719 52.2578 6.3125 52.6719 6.89062C53.0859 7.46094 53.3945 8.14062 53.5977 8.92969C53.8086 9.71875 53.9141 10.5898 53.9141 11.543ZM51.0898 11.7891V11.543C51.0898 10.9727 51.043 10.4375 50.9492 9.9375C50.8555 9.42969 50.6992 8.98438 50.4805 8.60156C50.2695 8.21875 49.9805 7.91797 49.6133 7.69922C49.2539 7.47266 48.8047 7.35938 48.2656 7.35938C47.7656 7.35938 47.3359 7.44531 46.9766 7.61719C46.6172 7.78906 46.3164 8.02344 46.0742 8.32031C45.832 8.61719 45.6406 8.96094 45.5 9.35156C45.3672 9.74219 45.2773 10.1641 45.2305 10.6172V12.7383C45.3008 13.3242 45.4492 13.8633 45.6758 14.3555C45.9102 14.8398 46.2383 15.2305 46.6602 15.5273C47.082 15.8164 47.625 15.9609 48.2891 15.9609C48.8125 15.9609 49.2539 15.8555 49.6133 15.6445C49.9727 15.4336 50.2578 15.1406 50.4688 14.7656C50.6875 14.3828 50.8438 13.9375 50.9375 13.4297C51.0391 12.9219 51.0898 12.375 51.0898 11.7891ZM55.7656 11.8008V11.5312C55.7656 10.6172 55.8984 9.76953 56.1641 8.98828C56.4297 8.19922 56.8125 7.51562 57.3125 6.9375C57.8203 6.35156 58.4375 5.89844 59.1641 5.57812C59.8984 5.25 60.7266 5.08594 61.6484 5.08594C62.5781 5.08594 63.4062 5.25 64.1328 5.57812C64.8672 5.89844 65.4883 6.35156 65.9961 6.9375C66.5039 7.51562 66.8906 8.19922 67.1562 8.98828C67.4219 9.76953 67.5547 10.6172 67.5547 11.5312V11.8008C67.5547 12.7148 67.4219 13.5625 67.1562 14.3438C66.8906 15.125 66.5039 15.8086 65.9961 16.3945C65.4883 16.9727 64.8711 17.4258 64.1445 17.7539C63.418 18.0742 62.5938 18.2344 61.6719 18.2344C60.7422 18.2344 59.9102 18.0742 59.1758 17.7539C58.4492 17.4258 57.832 16.9727 57.3242 16.3945C56.8164 15.8086 56.4297 15.125 56.1641 14.3438C55.8984 13.5625 55.7656 12.7148 55.7656 11.8008ZM58.5898 11.5312V11.8008C58.5898 12.3711 58.6484 12.9102 58.7656 13.418C58.8828 13.9258 59.0664 14.3711 59.3164 14.7539C59.5664 15.1367 59.8867 15.4375 60.2773 15.6562C60.668 15.875 61.1328 15.9844 61.6719 15.9844C62.1953 15.9844 62.6484 15.875 63.0312 15.6562C63.4219 15.4375 63.7422 15.1367 63.9922 14.7539C64.2422 14.3711 64.4258 13.9258 64.543 13.418C64.668 12.9102 64.7305 12.3711 64.7305 11.8008V11.5312C64.7305 10.9688 64.668 10.4375 64.543 9.9375C64.4258 9.42969 64.2383 8.98047 63.9805 8.58984C63.7305 8.19922 63.4102 7.89453 63.0195 7.67578C62.6367 7.44922 62.1797 7.33594 61.6484 7.33594C61.1172 7.33594 60.6562 7.44922 60.2656 7.67578C59.8828 7.89453 59.5664 8.19922 59.3164 8.58984C59.0664 8.98047 58.8828 9.42969 58.7656 9.9375C58.6484 10.4375 58.5898 10.9688 58.5898 11.5312ZM75.7344 5.32031V7.38281H68.5859V5.32031H75.7344ZM70.6484 2.21484H73.4727V14.4961C73.4727 14.8867 73.5273 15.1875 73.6367 15.3984C73.7539 15.6016 73.9141 15.7383 74.1172 15.8086C74.3203 15.8789 74.5586 15.9141 74.832 15.9141C75.0273 15.9141 75.2148 15.9023 75.3945 15.8789C75.5742 15.8555 75.7188 15.832 75.8281 15.8086L75.8398 17.9648C75.6055 18.0352 75.332 18.0977 75.0195 18.1523C74.7148 18.207 74.3633 18.2344 73.9648 18.2344C73.3164 18.2344 72.7422 18.1211 72.2422 17.8945C71.7422 17.6602 71.3516 17.2812 71.0703 16.7578C70.7891 16.2344 70.6484 15.5391 70.6484 14.6719V2.21484ZM93.7461 11.0039H95.5391C95.5391 12.2305 95.1875 13.1523 94.4844 13.7695C93.7812 14.3789 92.8281 14.6836 91.625 14.6836C90.7891 14.6836 90.0664 14.4922 89.457 14.1094C88.8477 13.7266 88.375 13.1953 88.0391 12.5156C87.7109 11.8359 87.5469 11.0469 87.5469 10.1484V8.77734C87.5469 7.87891 87.7109 7.08984 88.0391 6.41016C88.375 5.73047 88.8477 5.19922 89.457 4.81641C90.0664 4.43359 90.7891 4.24219 91.625 4.24219C92.8281 4.24219 93.7812 4.54688 94.4844 5.15625C95.1953 5.76562 95.5508 6.68359 95.5508 7.91016H93.7578C93.7578 7.15234 93.5781 6.60938 93.2188 6.28125C92.8594 5.95312 92.3281 5.78906 91.625 5.78906C91.1172 5.78906 90.6914 5.91797 90.3477 6.17578C90.0117 6.42578 89.7539 6.77344 89.5742 7.21875C89.4023 7.66406 89.3164 8.17969 89.3164 8.76562V10.1484C89.3164 10.7344 89.4023 11.2539 89.5742 11.707C89.7539 12.1523 90.0117 12.5039 90.3477 12.7617C90.6914 13.0117 91.1172 13.1367 91.625 13.1367C92.3281 13.1367 92.8555 12.9727 93.207 12.6445C93.5664 12.3164 93.7461 11.7695 93.7461 11.0039ZM84.875 9.45703C84.875 10.4883 85.0508 11.4492 85.4023 12.3398C85.7617 13.2305 86.2578 14.0117 86.8906 14.6836C87.5312 15.3477 88.2695 15.8672 89.1055 16.2422C89.9414 16.6094 90.8359 16.793 91.7891 16.793C92.7422 16.793 93.6328 16.6094 94.4609 16.2422C95.2969 15.8672 96.0312 15.3477 96.6641 14.6836C97.3047 14.0117 97.8008 13.2305 98.1523 12.3398C98.5117 11.4492 98.6914 10.4883 98.6914 9.45703C98.6914 8.41797 98.5117 7.45703 98.1523 6.57422C97.8008 5.68359 97.3047 4.90625 96.6641 4.24219C96.0312 3.57812 95.2969 3.0625 94.4609 2.69531C93.6328 2.32813 92.7422 2.14453 91.7891 2.14453C90.8359 2.14453 89.9414 2.32813 89.1055 2.69531C88.2695 3.0625 87.5312 3.57812 86.8906 4.24219C86.2578 4.90625 85.7617 5.68359 85.4023 6.57422C85.0508 7.45703 84.875 8.41797 84.875 9.45703ZM83.4688 9.45703C83.4688 8.21484 83.6836 7.0625 84.1133 6C84.543 4.9375 85.1406 4.01172 85.9062 3.22266C86.6719 2.42578 87.5547 1.80859 88.5547 1.37109C89.5625 0.925781 90.6406 0.703125 91.7891 0.703125C92.9375 0.703125 94.0117 0.925781 95.0117 1.37109C96.0195 1.80859 96.9023 2.42578 97.6602 3.22266C98.4258 4.01172 99.0234 4.9375 99.4531 6C99.8906 7.0625 100.109 8.21484 100.109 9.45703C100.109 10.6992 99.8906 11.8516 99.4531 12.9141C99.0234 13.9766 98.4258 14.9062 97.6602 15.7031C96.9023 16.5 96.0195 17.1211 95.0117 17.5664C94.0117 18.0117 92.9375 18.2344 91.7891 18.2344C90.6406 18.2344 89.5625 18.0117 88.5547 17.5664C87.5547 17.1211 86.6719 16.5 85.9062 15.7031C85.1406 14.9062 84.543 13.9766 84.1133 12.9141C83.6836 11.8516 83.4688 10.6992 83.4688 9.45703Z" fill="#BEBEBE"/>
</svg>
